<?xml version="1.0" encoding="utf-8"?>
<!-- Generator: Adobe Illustrator 25.4.1, SVG Export Plug-In . SVG Version: 6.00 Build 0)  -->
<svg version="1.0" id="レイヤー_1" xmlns="http://www.w3.org/2000/svg" xmlns:xlink="http://www.w3.org/1999/xlink" x="0px"
	 y="0px" viewBox="0 0 256 256" style="enable-background:new 0 0 256 256;" xml:space="preserve">
<style type="text/css">
	.st0{fill:url(#SVGID_1_);}
	.st1{fill:url(#SVGID_00000100377925194622546600000000081224530981313687_);}
	.st2{fill:none;stroke:#D4145A;stroke-width:16;stroke-linecap:round;stroke-linejoin:round;}
	.st3{fill:#D4145A;}
</style>
<g>
	<linearGradient id="SVGID_1_" gradientUnits="userSpaceOnUse" x1="73.4831" y1="163.9535" x2="111.0854" y2="98.8243">
		<stop  offset="0" style="stop-color:#B8B8B8"/>
		<stop  offset="1" style="stop-color:#424242"/>
	</linearGradient>
	<path class="st0" d="M67.71,158.24l8.26-7.78c4.8,5.66,10.18,8.83,17.66,8.83c6.53,0,11.62-4.03,11.62-10.18v-0.19
		c0-6.62-6.05-10.37-15.46-10.37h-5.47l-1.92-7.39l18.14-19.29H71.46V101.6h44.44v8.83l-18.72,19.2
		c10.18,1.25,19.77,6.43,19.77,18.81v0.19c0,12.38-9.5,21.31-23.52,21.31C81.73,169.95,73.38,165.06,67.71,158.24z"/>
	
		<linearGradient id="SVGID_00000051352160567382601460000013304334068652313473_" gradientUnits="userSpaceOnUse" x1="140.7253" y1="164.5366" x2="174.5871" y2="105.8861">
		<stop  offset="0" style="stop-color:#B8B8B8"/>
		<stop  offset="1" style="stop-color:#424242"/>
	</linearGradient>
	<path style="fill:url(#SVGID_00000051352160567382601460000013304334068652313473_);" d="M128.38,135.39v-0.19
		c0-19.2,11.71-34.75,29.37-34.75c17.57,0,29.18,15.36,29.18,34.56v0.19c0,19.2-11.71,34.75-29.37,34.75
		C139.9,169.95,128.38,154.59,128.38,135.39z M174.75,135.39v-0.19c0-13.25-6.82-24.09-17.18-24.09s-16.99,10.66-16.99,23.9v0.19
		c0,13.25,6.72,24.09,17.18,24.09C168.22,159.3,174.75,148.54,174.75,135.39z"/>
</g>
<g>
	<g>
		<path class="st2" d="M195.88,60.12c18,18,28.12,42.43,28.12,67.88c0,52.66-43.34,96-96,96s-96-43.34-96-96
			c0-46.45,33.71-85.64,77.8-94.24"/>
		<g>
			<polygon class="st3" points="80.85,64.06 105.1,34.33 75.36,10.09 98.27,7.76 128,32 103.76,61.73 			"/>
		</g>
	</g>
</g>
<g>
</g>
<g>
</g>
<g>
</g>
<g>
</g>
<g>
</g>
<g>
</g>
<g>
</g>
<g>
</g>
<g>
</g>
<g>
</g>
<g>
</g>
<g>
</g>
<g>
</g>
<g>
</g>
<g>
</g>
<g>
</g>
</svg>
